<svg enable-background="new 0 0 467.04645 250.16389" viewBox="0 0 467.04645 250.16389" xmlns="http://www.w3.org/2000/svg"><path d="m293.91034 212.77477c-6.02515 0-10.92627-4.90459-10.92627-10.92982s4.90112-10.92628 10.92627-10.92628c6.02536 0 10.92627 4.90105 10.92627 10.92628s-4.90091 10.92982-10.92627 10.92982m-120.77423 0c-6.02538 0-10.92627-4.90459-10.92627-10.92982s4.90089-10.92628 10.92627-10.92628c6.02515 0 10.92625 4.90105 10.92625 10.92628s-4.90111 10.92982-10.92625 10.92982m124.69308-65.82016 21.83826-37.82177c1.25195-2.17392.50714-4.95069-1.66324-6.2061-2.17035-1.25186-4.95068-.50713-6.20609 1.66323l-22.11142 38.30052c-16.909-7.71684-35.8996-12.015-56.1636-12.015-20.26378 0-39.25438 4.29816-56.16338 12.015l-22.1114-38.30052c-1.25543-2.17036-4.03575-2.91509-6.20612-1.66323-2.17036 1.25541-2.91862 4.03218-1.66321 6.2061l21.83824 37.82177c-37.49896 20.39503-63.14611 58.35866-66.89809 103.20929h262.40811c-3.75542-44.85064-29.40257-82.81426-66.89806-103.20929" fill="#3ddb85"/><path d="m0 0h467.04645v250.16389h-467.04645z" fill="none"/></svg>