<svg enable-background="new 0 0 1000 1000" viewBox="0 0 1000 1000" xmlns="http://www.w3.org/2000/svg"><path d="m990 545c-6.5 27-16.6 49.5-30.5 67.6s-31.1 31.7-51.7 40.9-46.8 13.8-78.6 13.8c-38.6 0-70.1-5.6-94.6-16.8s-45.6-30.9-63.4-59.2c-17.8-28.2-26.6-64.4-26.6-108.5 0-58.7 15.6-103.9 46.9-135.4 31.2-31.6 75.4-47.4 132.5-47.4 44.7 0 79.9 9.1 105.5 27.1 25.6 18.1 44.6 45.9 57 83.3l-96.9 21.6c-3.4-10.8-6.9-18.7-10.7-23.7-6.1-8.4-13.7-14.9-22.5-19.4-8.9-4.5-18.8-6.8-29.8-6.8-24.9 0-43.9 10-57.2 30-10 14.8-15 38.2-15 69.9 0 39.4 6 66.3 17.9 81 12 14.6 28.8 21.9 50.4 21.9 21 0 36.9-5.9 47.6-17.7s18.5-28.9 23.4-51.4zm-766.8-139.6c4.4 17.8 6.6 37.8 6.6 60 0 25.4-3 47.4-9 65.9s-14.1 33.8-24.3 45.8c-10.2 12.1-22.1 21-35.8 26.9-13.7 5.8-28.1 8.8-43.2 8.8-18.2 0-34.1-3.3-47.6-9.9s-24.7-16.1-33.6-28.5c-8.9-12.4-15.5-27.5-19.8-45.4-4.3-17.8-6.5-38-6.5-60.4 0-25.1 3-47 8.9-65.5s14-33.8 24.2-45.8c10.2-12.1 22.1-21 35.7-26.9s28-8.8 43.1-8.8c18.2 0 34.1 3.3 47.6 10 13.5 6.6 24.7 16.1 33.7 28.5 8.9 12.4 15.6 27.5 20 45.3zm-33.5 62.8c0-16.6-1.3-31.8-3.8-45.6s-6.6-25.7-12.3-35.7c-5.6-10-12.9-17.7-21.8-23.2s-19.6-8.2-32.2-8.2c-12.1 0-22.6 2.9-31.3 8.8s-15.9 13.8-21.6 23.8c-5.6 10-9.8 21.8-12.6 35.3-2.7 13.5-4.1 27.9-4.1 43 0 16.8 1.3 32 3.9 45.9 2.6 13.8 6.7 25.6 12.3 35.5s12.7 17.6 21.6 23.1c8.8 5.5 19.4 8.2 31.9 8.2 12.1 0 22.6-2.9 31.4-8.8s16.1-13.8 21.8-23.9c5.7-10 9.9-21.8 12.7-35.2 2.7-13.3 4.1-27.6 4.1-43zm252.9 28c0 18.1-2.5 34.2-7.5 48.5-5 14.2-12.1 26.3-21.3 36.2s-20.3 17.5-33.5 22.8-28 7.9-44.4 7.9c-12.9 0-26-1.2-39.5-3.7-13.4-2.5-26.7-6.3-39.9-11.7v-293.6h37.7v84.4l-1.7 40.3c10.8-14.6 22.4-24.9 34.8-30.9 12.3-6 25.6-9 39.8-9 12.4 0 23.3 2.6 32.7 7.8s17.3 12.5 23.6 22c6.4 9.5 11.1 20.9 14.3 34.3 3.3 13.3 4.9 28.2 4.9 44.7zm-38.6 1.7c0-11.4-.8-21.9-2.5-31.4s-4.3-17.7-7.9-24.5-8.2-12.1-13.9-15.9c-5.6-3.8-12.4-5.7-20.2-5.7-4.8 0-9.6.8-14.5 2.3s-10 4-15.3 7.6c-5.3 3.5-10.8 8.2-16.7 14.1-5.8 5.9-12.1 13.1-18.8 21.8v105.6c7.4 2.9 14.9 5.2 22.5 6.8 7.7 1.7 15 2.5 21.9 2.5 8.7 0 16.9-1.4 24.8-4.1s14.8-7.3 20.8-13.8c6-6.4 10.8-15 14.3-25.6 3.7-10.7 5.5-23.9 5.5-39.7zm46.5-75.4h106.7v183.8c0 20.2-4.7 35.6-14.1 46s-22.3 15.6-38.8 15.6c-5.2 0-10.6-.3-16-1-5.5-.6-11-1.6-16.4-2.9s-10.7-2.9-15.8-4.8-9.9-4-14.4-6.3v36c8.2 3.5 17.5 6.2 27.6 8.1 10.2 1.9 20.6 2.9 31.3 2.9 14.7 0 28-2.1 39.8-6.3s21.7-10.3 29.8-18.4 14.3-18 18.6-29.8 6.5-25.3 6.5-40.4v-213.7h-144.8zm143.2-113.8c-2.7-2.7-5.8-4.9-9.4-6.4s-7.5-2.3-11.7-2.3-8.1.8-11.7 2.3-6.8 3.7-9.4 6.4c-2.7 2.7-4.8 5.9-6.3 9.5s-2.3 7.4-2.3 11.5c0 4.2.8 8.1 2.3 11.6s3.6 6.7 6.3 9.4 5.8 4.9 9.4 6.4 7.5 2.3 11.7 2.3 8.1-.8 11.7-2.3 6.8-3.6 9.4-6.4c2.7-2.7 4.8-5.9 6.3-9.4s2.3-7.4 2.3-11.6c0-4-.8-7.9-2.3-11.5-1.6-3.6-3.7-6.8-6.3-9.5z"/></svg>