<svg enable-background="new 0 0 115.28 122.88" viewBox="0 0 115.28 122.88" xmlns="http://www.w3.org/2000/svg"><path clip-rule="evenodd" d="m25.38 57h64.88v-19.66h-20.67c-2.17 0-5.19-1.17-6.62-2.6s-2.3-4.01-2.3-6.17v-20.93h-52.52c-.18 0-.32.09-.41.18-.15.1-.19.23-.19.42v106.45c0 .14.09.32.18.41.09.14.28.18.41.18h81.51c.18 0 .17-.09.27-.18.14-.09.33-.28.33-.41v-11.16h-64.87c-4.14 0-7.56-3.4-7.56-7.56v-31.42c0-4.15 3.4-7.55 7.56-7.55zm4.6 11.76h7.76l4.03 7 3.92-7h7.66l-7.07 11.02 7.74 11.73h-7.91l-4.47-7.31-4.5 7.31h-7.85l7.85-11.86zm25.74 0h9.28l3.53 13.85 3.54-13.85h9.23v22.76h-5.75v-17.35l-4.44 17.35h-5.21l-4.43-17.35v17.35h-5.75zm29.59 0h7.03v17.16h11v5.59h-18.03zm12.48-11.76h9.93c4.16 0 7.56 3.41 7.56 7.56v31.42c0 4.15-3.41 7.56-7.56 7.56h-9.93v13.55c0 1.61-.65 3.04-1.7 4.1-1.06 1.06-2.49 1.7-4.1 1.7-29.44 0-56.59 0-86.18 0-1.61 0-3.04-.64-4.1-1.7s-1.7-2.49-1.7-4.1v-111.24c0-1.61.65-3.04 1.7-4.1 1.06-1.06 2.53-1.7 4.1-1.7h58.72c.13-.05.27-.05.41-.05.64 0 1.29.28 1.75.69h.09c.09.05.14.09.23.18l29.99 30.36c.51.51.88 1.2.88 1.98 0 .23-.05.41-.09.65zm-30.27-29.03v-19.03l21.43 21.7h-18.76c-.74 0-1.38-.32-1.89-.78-.46-.46-.78-1.15-.78-1.89z" fill-rule="evenodd"/></svg>