<?xml version="1.0" encoding="UTF-8"?>
<svg width="1200pt" height="1200pt" version="1.1" viewBox="0 0 1200 1200" xmlns="http://www.w3.org/2000/svg">
 <path d="m108 588c2.3984 2.3984 4.8008 10.801 7.1992 15.602 4.8008 14.398 12 32.398 28.801 32.398s24-18 28.801-32.398c1.1992-4.8008 3.6016-10.801 6-14.398 2.3984 3.6016 4.8008 9.6016 6 14.398 4.8008 14.398 12 32.398 28.801 32.398 16.801 0 24-18 28.801-32.398 1.1992-4.8008 3.6016-10.801 6-14.398 2.3984 3.6016 4.8008 9.6016 6 14.398 4.8008 14.398 12 32.398 28.801 32.398s24-18 28.801-32.398c1.1992-4.8008 3.6016-10.801 6-14.398 2.3984 3.6016 4.8008 9.6016 6 14.398 4.8008 14.398 12 32.398 28.801 32.398 16.801 0 24-18 28.801-32.398 1.1992-4.8008 3.6016-10.801 6-14.398 2.3984 3.6016 4.8008 9.6016 6 14.398 4.8008 14.398 12 32.398 28.801 32.398s24-18 28.801-32.398c1.1992-4.8008 3.6016-10.801 6-14.398 2.3984 3.6016 4.8008 9.6016 6 14.398 4.8008 14.398 12 32.398 28.801 32.398 16.801 0 24-18 28.801-32.398 1.1992-4.8008 3.6016-10.801 6-14.398 2.3984 3.6016 4.8008 9.6016 6 14.398 4.8008 14.398 12 32.398 28.801 32.398s24-18 28.801-32.398c1.1992-4.8008 3.6016-10.801 6-14.398 2.3984 3.6016 4.8008 9.6016 6 14.398 4.8008 14.398 12 32.398 28.801 32.398 16.801 0 24-18 28.801-32.398 1.1992-4.8008 3.6016-10.801 6-14.398 2.3984 3.6016 4.8008 9.6016 6 14.398 4.8008 14.398 12 32.398 28.801 32.398s24-18 28.801-32.398c1.1992-4.8008 3.6016-10.801 6-14.398 2.3984 3.6016 4.8008 9.6016 6 14.398 4.8008 14.398 12 32.398 28.801 32.398 16.801 0 24-18 28.801-32.398 1.1992-4.8008 3.6016-10.801 6-14.398 2.3984 3.6016 4.8008 9.6016 6 14.398 4.8008 14.398 12 32.398 28.801 32.398s24-18 28.801-32.398c1.1992-4.8008 3.6016-10.801 6-14.398 2.3984 3.6016 4.8008 9.6016 6 14.398 4.8008 14.398 12 32.398 28.801 32.398 16.801 0 24-18 28.801-32.398 1.1992-4.8008 3.6016-10.801 6-14.398 2.3984 3.6016 4.8008 9.6016 6 14.398 4.8008 14.398 12 32.398 28.801 32.398s24-18 28.801-32.398c1.1992-4.8008 3.6016-10.801 6-14.398 2.3984 3.6016 4.8008 9.6016 6 14.398 4.8008 14.398 12 32.398 28.801 32.398 16.801 0 24-18 28.801-32.398 1.1992-4.8008 3.6016-10.801 6-14.398 2.3984 3.6016 4.8008 9.6016 6 14.398 4.8008 14.398 12 32.398 28.801 32.398 7.1992 0 12-4.8008 12-12 0-6-4.8008-10.801-10.801-12-2.3984-2.3984-4.8008-10.801-7.1992-15.602-4.8008-14.398-12-32.398-28.801-32.398-16.801 0-24 18-28.801 32.398-1.1992 4.8008-3.6016 10.801-6 14.398-2.3984-3.6016-4.8008-9.6016-6-14.398-4.8008-14.398-12-32.398-28.801-32.398s-24 18-28.801 32.398c-1.1992 4.8008-3.6016 10.801-6 14.398-2.3984-3.6016-4.8008-9.6016-6-14.398-4.8008-14.398-12-32.398-28.801-32.398s-24 18-28.801 32.398c-1.1992 4.8008-3.6016 10.801-6 14.398-2.3984-3.6016-4.8008-9.6016-6-14.398-4.8008-14.398-12-32.398-28.801-32.398-16.801 0-24 18-28.801 32.398-1.1992 4.8008-3.6016 10.801-6 14.398-2.3984-3.6016-4.8008-9.6016-6-14.398-4.8008-14.398-12-32.398-28.801-32.398-16.801 0-24 18-28.801 32.398-1.1992 4.8008-3.6016 10.801-6 14.398-2.3984-3.6016-4.8008-9.6016-6-14.398-4.8008-14.398-12-32.398-28.801-32.398s-24 18-28.801 32.398c-1.1992 4.8008-3.6016 10.801-6 14.398-2.3984-3.6016-4.8008-9.6016-6-14.398-4.8008-14.398-12-32.398-28.801-32.398s-24 18-28.801 32.398c-1.1992 4.8008-3.6016 10.801-6 14.398-2.3984-3.6016-4.8008-9.6016-6-14.398-4.8008-14.398-12-32.398-28.801-32.398-16.801 0-24 18-28.801 32.398-1.1992 4.8008-3.6016 10.801-6 14.398-2.3984-3.6016-4.8008-9.6016-6-14.398-4.8008-14.398-12-32.398-28.801-32.398-16.801 0-24 18-28.801 32.398-1.1992 4.8008-3.6016 10.801-6 14.398-2.3984-3.6016-4.8008-9.6016-6-14.398-4.8008-14.398-12-32.398-28.801-32.398s-24 18-28.801 32.398c-1.1992 4.8008-3.6016 10.801-6 14.398-2.3984-3.6016-4.8008-9.6016-6-14.398-4.8008-14.398-12-32.398-28.801-32.398s-24 18-28.801 32.398c-1.1992 4.8008-3.6016 10.801-6 14.398-2.3984-3.6016-4.8008-9.6016-6-14.398-4.8008-14.398-12-32.398-28.801-32.398-16.801 0-24 18-28.801 32.398-1.1992 4.8008-3.6016 10.801-6 14.398-2.3984-3.6016-4.8008-9.6016-6-14.398-4.8008-14.398-12-32.398-28.801-32.398-16.801 0-24 18-28.801 32.398-1.1992 4.8008-3.6016 10.801-6 14.398-2.3984-3.6016-4.8008-9.6016-6-14.398-4.8008-14.398-12-32.398-28.801-32.398s-24 18-28.801 32.398c-1.1992 4.8008-3.6016 10.801-6 14.398-2.3984-3.6016-4.8008-9.6016-6-14.398-4.8008-14.398-12-32.398-28.801-32.398-7.1992 0-12 4.8008-12 12 1.1992 6 4.8008 10.801 10.801 12z"/>
</svg>
